<svg xmlns="http://www.w3.org/2000/svg" version="1.1" xlink="http://www.w3.org/1999/xlink" xmlns:svgjs="http://svgjs.com/svgjs" width="100%" height="100%" viewBox="21.23062515258789 6 55.770503997802734 88.3590087890625">
  <g fill="url(#SvgjsLinearGradient1001)">
      <path d="M37.56 27.248c-5.719.444-9.685 2.424-11.788 5.883-1.536 2.529-2.036 5.882-1.445 9.698.44 2.84 1.316 4.927 1.353 5.014l.064.122c2.282 3.479.223 8.02.214 8.039-5.079 9.898-6.071 18.166-2.949 24.574 4.165 8.546 14.048 10.533 14.466 10.615l.91.174V27.184l-.825.064zm-.706 62.212c-2.477-.697-9.356-3.153-12.473-9.563-2.893-5.949-1.903-13.752 2.953-23.219.101-.215 2.425-5.299-.267-9.49-.292-.728-3.119-8.104.015-13.261 1.734-2.852 5.019-4.557 9.772-5.075V89.46zm1.531 1.907h.001-.001zm36.693-29.189c.316-2.349.889-3.563.893-3.572l.04-.102c1.54-4.77 1.282-8.86-.763-12.157-3.553-5.721-11.148-6.917-11.471-6.965l-.879-.131v30.124H39.595l-.057.704c-.695 8.593.914 15.079 4.782 19.272 4.169 4.52 9.708 5.008 11.897 5.008.404 0 .68-.018.776-.025 7.876-.006 13.465-2.158 16.614-6.395 4.586-6.17 2.293-14.448 2.1-15.114-1.048-4.87-.92-8.477-.629-10.647zm-2.702 24.847c-2.849 3.834-8.033 5.777-15.413 5.777l-.07.004c-.002 0-.25.021-.676.021-1.986 0-7.012-.441-10.771-4.515-3.463-3.756-4.953-9.608-4.433-17.406H64.43V41.079c2.022.481 7.016 2.04 9.521 6.084 1.784 2.886 1.991 6.526.618 10.825-.279.609-2.399 5.705-.354 15.188l.015.059c.024.081 2.374 8.106-1.854 13.79z"></path>
      <path d="M48.631 54.929a5.613 5.613 0 0 0-5.606 5.606 5.613 5.613 0 0 0 5.606 5.607 5.614 5.614 0 0 0 5.607-5.607 5.613 5.613 0 0 0-5.607-5.606zm0 9.764a4.163 4.163 0 0 1-4.159-4.159 4.164 4.164 0 0 1 4.159-4.159 4.163 4.163 0 0 1 4.159 4.159 4.162 4.162 0 0 1-4.159 4.159z"></path>
      <path d="M48.002 53.723c.03.004.056.018.087.018.059 0 .111-.021.166-.033.178-.016.355-.034.537-.034 3.212 0 5.867 2.411 6.264 5.517v.228c0 .065.022.122.037.184.008.13.02.259.02.391a6.31 6.31 0 0 1-.342 2.051l-.349 1.015h4.711V13.27h-5.18l-1.369 2.837a.712.712 0 0 0-.102.209L50.5 20.423l-1.722-3.567a.672.672 0 0 0-.052-.108l-1.679-3.478h-5.021v45.614l1.414-2.248a6.281 6.281 0 0 1 4.562-2.913zm1.696-1.526a7.85 7.85 0 0 0-.872-.055V20.481l.872 1.807v29.909zm7.902 9.326h-1.108a7.62 7.62 0 0 0 .149-1.531c0-.082-.01-.162-.013-.244a.815.815 0 0 0 .071-.331V14.799h.9v46.724zm-2.687-46.724h.142V55.28a7.847 7.847 0 0 0-1.105-1.191V16.795l.963-1.996zm-2.474 5.123v33.125a7.76 7.76 0 0 0-1.363-.564V22.604h.068l1.295-2.682zm-5.087-2.494v34.844a7.878 7.878 0 0 0-1.178.32V14.987l1.178 2.441zm-3.796-2.629h1.086v38.203a.76.76 0 0 0 .057.283 7.731 7.731 0 0 0-1.143.852V14.799z"></path>
      <path d="M51.254 16.188L56.17 6H45.113l4.918 10.188h1.223zm2.478-8.656l-3.09 6.398-3.088-6.398h6.178z"></path>
    </g>
    <defs>
      <linearGradient gradientUnits="userSpaceOnUse" id="SvgjsLinearGradient1001" x1="13.083498954772974" y1="86.21188259124754" x2="85.14825534820558" y2="14.147126197814934">
        <stop stop-color="#7696f0" offset="0.05"></stop>
        <stop stop-color="#1748cf" offset="0.95"></stop>
      </linearGradient>
    </defs>
  </svg>